PathFileType	4	(X/Y/Z)	C:\Users\°ÂÌØÂü\Desktop\20201223\Trimmed_bx_y_0_501.trc
DataRate	CameraRate	NumFrames	NumMarkers	Units	OrigDataRate	OrigDataStartFrame	OrigNumFrames
50.00	50.00	      4	43	mm	50.00	490	      1306
Frame#	Time	Top.Head			R.Acromium			L.Acromium			Sternum			R.ASIS			L.ASIS			V.Sacral			R.Thigh.Upper			R.Thigh.Front			R.Thigh.Rear			R.Knee.Lat			R.Knee.Med			R.Shank.Upper			R.Shank.Front			R.Shank.Rear			R.Ankle.Lat			R.Midfoot.Lat			R.Toe.Lat			R.Toe.Tip			R.Toe.Med			R.Ankle.Med			R.Midfoot.Sup			R.Heel			L.Thigh.Upper			L.Thigh.Front			L.Thigh.Rear			L.Knee.Lat			L.Knee.Med			L.Shank.Upper			L.Shank.Front			L.Shank.Rear			L.Ankle.Lat			L.Midfoot.Lat			L.Toe.Lat			L.Toe.Tip			L.Toe.Med			L.Ankle.Med			L.Midfoot.Sup			L.Heel			origin1 front left			origin2 front right			origin 3 back right			origin 4 back leftt			
		X1	Y1	Z1	X2	Y2	Z2	X3	Y3	Z3	X4	Y4	Z4	X5	Y5	Z5	X6	Y6	Z6	X7	Y7	Z7	X8	Y8	Z8	X9	Y9	Z9	X10	Y10	Z10	X11	Y11	Z11	X12	Y12	Z12	X13	Y13	Z13	X14	Y14	Z14	X15	Y15	Z15	X16	Y16	Z16	X17	Y17	Z17	X18	Y18	Z18	X19	Y19	Z19	X20	Y20	Z20	X21	Y21	Z21	X22	Y22	Z22	X23	Y23	Z23	X24	Y24	Z24	X25	Y25	Z25	X26	Y26	Z26	X27	Y27	Z27	X28	Y28	Z28	X29	Y29	Z29	X30	Y30	Z30	X31	Y31	Z31	X32	Y32	Z32	X33	Y33	Z33	X34	Y34	Z34	X35	Y35	Z35	X36	Y36	Z36	X37	Y37	Z37	X38	Y38	Z38	X39	Y39	Z39	X40	Y40	Z40	X41	Y41	Z41	X42	Y42	Z42	X43	Y43	Z43	

490	9.780	-658.70331	263.39258	1835.98242	-601.91956	63.79335	1536.59534	-601.33685	459.70239	1514.16467	-507.80292	268.48132	1398.54968	-516.75623	148.20438	1054.87561	-511.91083	383.54657	1056.63770	-713.07007	246.26530	1053.36169	-555.96954	93.05501	891.12476	-509.31735	152.07523	839.89197	-607.05072	90.90543	746.53271	-647.57434	122.95614	597.21265	-623.11047	228.83061	556.78979	-678.22400	123.07127	542.03027	-594.67413	167.43506	540.28363	-717.29968	126.04927	475.43277	-687.22687	146.51003	214.76367	-615.94348	79.03311	167.93689	-571.07959	52.76986	162.68544	-491.87387	92.66453	160.88980	-531.16803	145.11522	163.54410	-631.80475	220.23024	218.64346	-591.27094	190.46935	168.13150	-716.61487	215.04024	170.44768	-553.92035	434.82941	880.51556	-506.39038	373.70303	832.92035	-599.78534	434.14288	746.77728	-648.01422	413.34607	625.52045	-606.29114	312.96695	571.70819	-657.33807	411.55225	561.39954	-601.91626	371.51315	535.46155	-707.66138	414.72427	510.16965	-678.92303	413.76749	212.78342	-585.67340	467.89389	165.55453	-547.22778	479.40573	160.46214	-487.80875	428.99704	168.16039	-524.43213	386.88965	178.16159	-642.23456	325.80453	206.71954	-593.29694	346.81607	168.41370	-732.31976	342.21152	164.60483	-443.96509	448.74335	148.15573	-450.03336	75.81229	143.94911	-806.34534	82.81235	142.46361	-799.13342	457.58060	145.02431	
491	9.800	-656.85999	263.24973	1836.20667	-601.06018	63.63565	1536.61597	-600.68286	459.66537	1514.25085	-507.35889	268.28198	1398.38586	-516.87585	148.29156	1054.78479	-512.05237	383.53769	1056.60132	-713.30951	246.28731	1053.52808	-556.38623	93.13515	890.96234	-509.57504	152.18179	839.89282	-607.57440	90.82992	746.60193	-647.98438	122.90157	597.25995	-623.32251	228.79063	556.72498	-678.65155	123.02744	542.09619	-594.99860	167.40472	540.29993	-717.60120	126.10233	475.30258	-687.25482	146.50673	214.73944	-615.92517	78.99886	167.90759	-571.10632	52.75755	162.67096	-491.87155	92.66594	160.88733	-531.17114	145.14014	163.52603	-631.83142	220.22688	218.69141	-591.32971	190.40799	168.21750	-716.59332	215.07024	170.49525	-554.12292	435.01666	880.60522	-506.72119	373.88446	832.81232	-600.22900	434.11414	746.64532	-648.27313	413.40259	625.40704	-606.62109	313.00342	571.81012	-657.62109	411.44766	561.31598	-602.16974	371.67123	535.52246	-707.77411	414.77612	510.07364	-679.11401	413.73553	213.09787	-585.67627	467.87787	165.52870	-547.22424	479.40692	160.50151	-487.80743	429.00360	168.16811	-524.43475	386.86194	178.15848	-642.29742	325.83374	206.67514	-593.35968	346.80936	168.41739	-732.33649	342.19681	164.58318	-443.98053	448.74991	148.17439	-450.03036	75.83723	143.94934	-806.34357	82.74801	142.48941	-799.14496	457.56815	145.07057	
492	9.820	-654.86481	263.08109	1836.41882	-600.14917	63.55314	1536.60815	-600.01074	459.58838	1514.30786	-506.84680	268.11688	1398.21497	-517.08276	148.43907	1054.65442	-512.27264	383.51114	1056.53772	-713.56793	246.36719	1053.68872	-556.82507	93.22189	890.80652	-509.88263	152.32487	839.95923	-608.29132	90.62750	746.90192	-648.41229	122.81854	597.33728	-623.53473	228.73906	556.70239	-679.10724	123.03237	542.07239	-595.32104	167.42229	540.27014	-717.93164	126.13590	475.18518	-687.24384	146.50494	214.72888	-615.94073	78.98460	167.89549	-571.11975	52.74413	162.67661	-491.86847	92.66785	160.88411	-531.18005	145.15872	163.51553	-631.84595	220.22954	218.73357	-591.42767	190.35588	168.24771	-716.56244	215.09056	170.53181	-554.42584	435.19354	880.62830	-507.09671	374.05942	832.69733	-600.72589	434.16040	746.59259	-648.61023	413.43387	625.27722	-606.99994	313.02292	571.81030	-657.96442	411.42258	561.32648	-602.39563	371.87442	535.57086	-707.95959	414.84647	509.98227	-679.30652	413.69250	213.50555	-585.68909	467.86420	165.52020	-547.22955	479.40384	160.51970	-487.79898	429.01102	168.20116	-524.44617	386.82956	178.13290	-642.35895	325.87067	206.61084	-593.39050	346.81589	168.46458	-732.35626	342.16550	164.59026	-443.99426	448.74329	148.18324	-450.03159	75.87469	143.95143	-806.33716	82.66846	142.52161	-799.15515	457.56522	145.13066	
493	9.840	-652.71698	262.89783	1836.61157	-599.15851	63.55600	1536.59949	-599.30798	459.47882	1514.34619	-506.27307	268.07458	1398.02527	-517.39789	148.62994	1054.48901	-512.56860	383.47021	1056.41870	-713.86377	246.50615	1053.84827	-557.21136	93.30913	890.70148	-510.26984	152.44545	840.03839	-609.05518	90.44172	747.18884	-648.83655	122.79118	597.36603	-623.81921	228.69397	556.72516	-679.51947	123.08264	541.97290	-595.66449	167.47935	540.21051	-718.31714	126.14770	475.07889	-687.14941	146.50031	214.75089	-615.96887	78.99452	167.89876	-571.11395	52.73993	162.68169	-491.85904	92.67361	160.87434	-531.18927	145.16978	163.51669	-631.84943	220.23283	218.75458	-591.49585	190.33682	168.22421	-716.54449	215.07014	170.54201	-554.82068	435.32355	880.58551	-507.50873	374.20145	832.64417	-601.29694	434.32065	746.66205	-649.04016	413.46118	625.19110	-607.41864	313.03711	571.71796	-658.33014	411.51572	561.44080	-602.59979	372.09286	535.59058	-708.25415	414.91983	509.90332	-679.43878	413.66382	213.83031	-585.70142	467.85199	165.53407	-547.24042	479.40305	160.49582	-487.78983	429.01038	168.24687	-524.45514	386.83517	178.11691	-642.41541	325.90839	206.58688	-593.37799	346.84674	168.52965	-732.37262	342.12128	164.61894	-444.00473	448.72394	148.17043	-450.03735	75.90500	143.96060	-806.32965	82.61790	142.54018	-799.15527	457.57306	145.16519	
